<svg width="100" height="103" viewBox="0 0 100 103" fill="none" xmlns="http://www.w3.org/2000/svg">
                        <g clip-path="url(#clip0)">
                        <path d="M24.5505 25.7197C23.4724 25.7197 22.5974 26.6096 22.5974 27.706C22.5974 28.8024 23.4724 29.6922 24.5505 29.6922C25.6287 29.6922 26.5037 28.8024 26.5037 27.706C26.5037 26.6096 25.6287 25.7197 24.5505 25.7197Z" fill="#151F38"/>
                        <path d="M42.1277 62.8605H36.2687V56.9022C36.2687 55.8054 35.3941 54.916 34.3156 54.916C33.2371 54.916 32.3626 55.8054 32.3626 56.9022V62.8605H26.5037C25.4251 62.8605 24.5505 63.75 24.5505 64.8466C24.5505 65.9432 25.4251 66.8328 26.5037 66.8328H32.3626V72.7911C32.3626 73.8879 33.2373 74.7773 34.3156 74.7773C35.3939 74.7773 36.2687 73.8879 36.2687 72.7911V66.8328H42.1277C43.2062 66.8328 44.0808 65.9434 44.0808 64.8466C44.0808 63.7498 43.2064 62.8605 42.1277 62.8605Z" fill="#151F38"/>
                        <path d="M94.8393 64.6477C90.5219 57.0433 80.9758 54.4407 73.4967 58.8322L65.5635 63.49V46.2423C65.5635 44.1101 64.8701 41.9942 63.6106 40.284L53.8455 27.0436V21.4055C56.1186 20.5856 57.7516 18.3781 57.7516 15.7887V6.65263C57.7512 3.3672 55.1229 0.694336 51.8922 0.694336H16.7377C13.507 0.694336 10.8785 3.3672 10.8785 6.65263V15.7889C10.8785 18.3779 12.5115 20.5858 14.7846 21.4057V27.0438L5.01875 40.285C3.75977 41.9944 3.06641 44.1101 3.06641 46.2423V84.7076C3.06641 90.1835 7.44707 94.6382 12.8314 94.6382H44.2186C48.5977 102.103 58.0402 104.601 65.442 100.255L89.1209 86.352C96.534 81.9986 99.1783 72.2937 94.8393 64.6477ZM14.7846 6.65263C14.7846 5.55742 15.6607 4.6664 16.7375 4.6664H51.892C52.9689 4.6664 53.8451 5.55742 53.8451 6.65263V15.7889C53.8451 16.8841 52.9689 17.7749 51.892 17.7749H16.7377C15.6607 17.7749 14.7848 16.8839 14.7848 15.7889V6.65263H14.7846ZM8.14453 42.6671L18.3 28.8974C18.5535 28.5538 18.6906 28.1355 18.6906 27.7057V21.7474H49.9391V25.7196H32.3619C31.2834 25.7196 30.4088 26.6091 30.4088 27.7059C30.4088 28.8027 31.2834 29.6921 32.3619 29.6921H50.9156L60.4846 42.6665C61.11 43.5156 61.4984 44.5316 61.6158 45.5811H7.01406C7.13125 44.5314 7.51973 43.5154 8.14453 42.6671ZM12.8316 90.6659C9.60098 90.6659 6.97266 87.9931 6.97266 84.7076V82.7018H42.4561C41.8367 85.2769 41.8408 88.0274 42.55 90.6661H12.8316V90.6659ZM43.9879 78.7492H6.97246V49.553H61.6572V65.7831L49.8176 72.7353C47.349 74.1854 45.3537 76.2497 43.9879 78.7492ZM63.4893 96.8149C57.8844 100.106 50.7223 98.1598 47.4836 92.4559C44.2295 86.6971 46.2016 79.4465 51.7711 76.175L62.3721 69.9506L74.0902 90.5905L63.4893 96.8149ZM87.1678 82.9121L77.4731 88.6044L65.7547 67.9641L75.4496 62.2724C81.0582 58.9796 88.2178 60.9295 91.4565 66.6336C94.7094 72.3662 92.7313 79.6449 87.1678 82.9121Z" fill="#151F38"/>
                        </g>
                        <defs>
                        <clipPath id="clip0">
                        <rect width="100" height="101.695" fill="white" transform="translate(0 0.694336)"/>
                        </clipPath>
                        </defs>
                        </svg>