<svg width="100" height="103" viewBox="0 0 100 103" fill="none" xmlns="http://www.w3.org/2000/svg">
                        <g clip-path="url(#clip0)">
                            <path d="M73.9976 46.4609C74.1087 45.9016 74.1651 45.3326 74.1665 44.7619C73.8995 40.5986 72.0003 36.7188 68.8949 33.9925C69.0787 34.0131 69.2505 34.0243 69.4398 34.0497C72.3681 34.4489 75.119 32.5318 75.8099 29.6105C76.5007 26.6891 74.9071 23.7098 72.1204 22.7115C69.9644 21.8928 67.7152 21.3546 65.4263 21.1101C65.6838 19.9728 65.8201 18.8104 65.8332 17.6433C65.8332 13.0403 62.5332 8.86921 57.4998 6.95092V5.77905C57.4998 2.97094 55.2612 0.694336 52.4998 0.694336C49.7385 0.694336 47.4999 2.97074 47.4999 5.77905V6.07043C46.9473 6.16815 46.4098 6.2905 45.8878 6.43788L45.0186 4.2298C44.1409 1.99749 41.6972 0.856014 39.4603 1.63342C37.2232 2.41082 35.9775 4.8346 36.6269 7.14616L37.9681 11.9212C37.1286 13.0518 36.4079 14.2685 35.8177 15.5518C35.7501 11.7292 34.7292 7.98673 32.8509 4.67471C31.4537 2.21995 28.8793 0.704068 26.0897 0.694535H19.5452C18.259 0.695726 17.0842 1.43698 16.512 2.60845C15.9397 3.77992 16.0684 5.17961 16.8442 6.22297C18.6639 8.69085 20.8334 12.3802 20.8334 15.9489V38.7965C17.7167 42.191 14.1669 48.5572 14.1669 60.0163C14.1669 75.1463 15.9637 77.9435 17.7215 78.6833C18.0124 78.8067 18.3245 78.8702 18.6395 78.8704C18.7332 78.8657 18.8266 78.8549 18.919 78.8387C19.477 80.1061 20.1166 81.3347 20.8336 82.5165V94.7618C20.8202 98.0031 22.8309 100.896 25.84 101.964C28.8492 103.033 32.1935 102.042 34.1669 99.4965C35.6712 101.45 38.0236 102.525 40.4585 102.375C42.8935 102.224 45.0999 100.866 46.3602 98.7418C47.2889 98.8923 48.2266 98.9783 49.1669 98.9992C54.0963 99.0156 59.0025 99.688 63.7607 100.999C66.6076 101.821 69.5423 102.288 72.5001 102.389C76.5089 102.389 85.8334 100.408 85.8334 82.0502C85.8331 73.5667 81.6825 58.3357 73.9976 46.4609ZM70.8331 44.7621C70.8474 45.183 70.8163 45.6043 70.7408 46.0182C70.6968 46.0941 70.6589 46.1731 70.6273 46.2552C70.5415 46.5775 70.3753 46.8717 70.1445 47.109C70.1267 47.1261 70.1064 47.1422 70.0878 47.1589C70.0033 47.2346 69.9134 47.3039 69.8189 47.3661C69.7675 47.4004 69.7173 47.435 69.6607 47.4676C69.5085 47.5552 69.3497 47.6306 69.1861 47.6932C69.1339 47.7135 69.0718 47.7301 69.0163 47.7492C68.8269 47.813 68.6345 47.8666 68.4396 47.9099C68.3775 47.924 68.3187 47.9391 68.2533 47.952C67.9759 48.0066 67.6632 48.0513 67.313 48.0845C67.2464 48.0908 67.1742 48.0952 67.1046 48.1008C66.7212 48.131 66.3086 48.1518 65.833 48.1518C65.5248 48.1518 65.2281 48.1363 64.9439 48.1079C64.9224 48.1059 64.9037 48.1012 64.8822 48.099C64.6207 48.0706 64.3679 48.0334 64.1291 47.9842L64.073 47.9701C63.8396 47.92 63.6162 47.8622 63.4072 47.7951C63.3676 47.7824 63.333 47.7667 63.2943 47.7536C63.1168 47.693 62.9459 47.6286 62.7881 47.5577C62.7187 47.5264 62.658 47.4918 62.5928 47.4588C62.4816 47.4028 62.3717 47.347 62.2724 47.2868C62.1857 47.2338 62.109 47.1784 62.032 47.1228C61.9715 47.0795 61.9096 47.0368 61.8551 46.9921C61.7752 46.9257 61.6992 46.8548 61.6273 46.7795C61.5953 46.7468 61.5627 46.7142 61.534 46.6812C61.4695 46.6065 61.4113 46.5269 61.3596 46.4427C61.3406 46.4119 61.3217 46.3813 61.3057 46.3507C61.2777 46.2991 61.2533 46.2454 61.2328 46.1904C61.1885 46.0601 61.1703 45.9221 61.1791 45.7846C61.1824 45.7211 61.1906 45.6577 61.2037 45.5954C61.2209 45.5191 61.2437 45.4442 61.2721 45.3715C61.3068 45.2666 61.3504 45.1649 61.4023 45.0678L61.425 45.0317C61.5859 44.753 61.782 44.497 62.008 44.2701L62.0088 44.2692L62.0094 44.2684L62.0111 44.2658L62.0121 44.2646L62.0127 44.2642C62.2756 43.9901 62.517 43.6957 62.7351 43.3839C62.7732 43.3313 62.8234 43.2852 62.8597 43.2316C62.9369 43.1197 62.9937 42.9986 63.0646 42.8836C63.0717 42.8726 63.0816 42.8651 63.0883 42.854C63.1281 42.7882 63.1584 42.7181 63.1965 42.6516C63.3779 42.3395 63.5398 42.0164 63.6816 41.6839C63.6873 41.6712 63.6972 41.662 63.7025 41.6491C63.7332 41.5747 63.7533 41.4976 63.7822 41.4227C63.8978 41.122 64.0068 40.8205 64.0935 40.5108C64.0986 40.4945 64.1097 40.4822 64.1144 40.4655L64.1177 40.4556C64.1511 40.3341 64.1691 40.2095 64.1976 40.087C64.2603 39.8234 64.3236 39.5616 64.3687 39.2953H64.3693L64.3691 39.2913C64.3898 39.1687 64.4019 39.046 64.4191 38.9231L64.4279 38.8964V38.8947L64.4287 38.8897C64.4467 38.7572 64.4636 38.6249 64.4791 38.4924L64.4818 38.4664L64.4886 38.409C64.5115 38.1862 64.5256 37.9665 64.5384 37.745C64.5394 37.7325 64.5468 37.7222 64.5474 37.7095C64.5556 37.5804 64.5613 37.4513 64.5662 37.3222L64.5676 37.2572L64.5695 37.1682L64.573 37.0145C64.5738 36.9583 64.5765 36.9021 64.5767 36.8461V36.8322L64.5761 36.8298C64.5761 36.7873 64.573 36.7468 64.573 36.7044L64.5791 36.6766C64.5797 36.6578 64.5711 36.6391 64.5707 36.62L64.5687 36.542C64.5666 36.273 64.5617 36.0136 64.549 35.761C64.5445 35.6758 64.5396 35.5928 64.5341 35.5084C64.5246 35.3568 64.5195 35.1947 64.5072 35.0511C68.0962 36.9915 70.4761 40.6453 70.8331 44.7621ZM63.2769 24.4249L63.2801 24.4243C63.5746 24.4231 63.8699 24.4227 64.1664 24.4231C66.5101 24.5393 68.8199 25.0402 71.0064 25.9062C71.6714 26.1408 72.2031 26.658 72.4632 27.323C72.7263 27.9784 72.6964 28.7177 72.381 29.3489C71.9154 30.2939 70.9099 30.8328 69.8802 30.6896C67.1703 30.1265 64.3584 30.3638 61.7767 31.3732L61.7691 31.376L61.7545 31.3814C61.557 31.4869 61.3828 31.6324 61.2428 31.8088C61.2275 31.8271 61.2035 31.8342 61.1889 31.8531C61.1687 31.8791 61.167 31.9139 61.1484 31.9409C61.0385 32.1002 60.9568 32.2776 60.9068 32.4655C60.8967 32.504 60.8789 32.5378 60.8713 32.5767C60.8309 32.7737 60.8256 32.9765 60.8559 33.1755L61.1455 34.9318C61.1629 35.0871 61.1768 35.2666 61.1912 35.442C61.2019 35.5783 61.2121 35.7141 61.2197 35.8557C61.2283 36.0053 61.2342 36.16 61.2387 36.3183C61.2457 36.6254 61.2451 36.9386 61.2318 37.2572C61.2293 37.3176 61.2271 37.378 61.224 37.4388C61.2037 37.8275 61.1635 38.215 61.1037 38.5995L61.0926 38.6573C61.0326 39.015 60.9498 39.3686 60.8447 39.7154C60.8348 39.7487 60.8234 39.7815 60.8127 39.8149C60.7963 39.8655 60.7773 39.9152 60.7598 39.9654C60.6672 40.2336 60.5559 40.4945 60.4266 40.7466C60.3764 40.8437 60.3279 40.9416 60.2721 41.0346C60.102 41.3327 59.8973 41.609 59.6627 41.8577L59.6555 41.867L59.6293 41.8976C59.4121 42.1209 59.2086 42.3572 59.0199 42.6057L59.0102 42.617L59.0086 42.6206L58.9977 42.6333C58.907 42.6466 58.8158 42.6595 58.724 42.6722C57.8695 42.7894 56.976 42.8846 56.0324 42.9487C55.9074 42.9573 55.7768 42.9618 55.6502 42.9694C54.6418 43.0296 53.5977 43.0675 52.4998 43.0675C52.1493 43.0675 51.7764 43.0409 51.3959 43.0016C51.2163 42.9827 51.0278 42.9527 50.8417 42.9257C50.6403 42.8969 50.4395 42.8685 50.235 42.8315C50.0057 42.7896 49.7733 42.7404 49.5401 42.6885C49.378 42.6526 49.2163 42.616 49.0544 42.5759C48.7895 42.5102 48.5253 42.4393 48.2616 42.3634C48.1549 42.3326 48.0499 42.3006 47.9446 42.2684C46.6954 41.9067 45.4979 41.3806 44.3825 40.7035C44.1784 40.4884 43.9597 40.288 43.728 40.1039C43.7235 40.0445 43.7226 39.9847 43.7251 39.9251C43.7306 39.8884 43.7509 39.8576 43.754 39.8198C43.8417 39.134 44.0247 38.4644 44.2977 37.831C44.3136 37.7919 44.3278 37.7546 44.3442 37.7146C44.4845 37.3708 44.6536 37.004 44.8395 36.626C44.8849 36.5338 44.9311 36.4409 44.9792 36.3465C45.1817 35.9495 45.4024 35.5407 45.6503 35.1183L45.7145 35.0106C46.6538 33.4393 47.7253 31.9536 48.9167 30.5702C48.9575 30.5227 48.9995 30.4755 49.0409 30.428C49.4573 29.9487 49.8899 29.4742 50.3438 29.0128L50.346 29.0106C50.7852 28.5671 51.2473 28.1476 51.7301 27.754C51.8161 27.6836 51.9018 27.6062 51.9877 27.5389C52.369 27.2413 52.7647 26.9634 53.1735 26.7062C53.3389 26.6012 53.5045 26.4945 53.6702 26.399C54.0131 26.1999 54.3573 26.0244 54.702 25.8637C54.9135 25.7654 55.1252 25.6732 55.3373 25.5876C55.6639 25.4563 55.9916 25.3353 56.3215 25.2323C56.5303 25.1665 56.7395 25.1103 56.9487 25.0547C57.3041 24.9615 57.6604 24.8737 58.0213 24.8064C58.1758 24.777 58.3311 24.7552 58.4859 24.7301C58.9096 24.6632 59.3348 24.6022 59.768 24.5621C59.8344 24.5558 59.9014 24.5524 59.968 24.5464C61.0348 24.4556 62.132 24.4288 63.2769 24.4249ZM35.8333 34.7448C35.8333 24.698 37.596 17.5194 41.0726 13.4113C41.4388 12.9793 41.5663 12.3888 41.412 11.8406L39.8316 6.21622C39.67 5.64002 39.9804 5.03621 40.5378 4.84215C41.0952 4.6481 41.7044 4.93193 41.9239 5.48807L43.3782 9.18402C43.5425 9.60172 43.8632 9.93581 44.2698 10.1128C44.6765 10.2897 45.1356 10.2951 45.5462 10.1275C46.7534 9.648 48.0231 9.35067 49.3149 9.2452C50.1745 9.16694 50.8333 8.43462 50.8335 7.55691V5.77925C50.8335 4.84315 51.5795 4.08441 52.5 4.08441C53.4205 4.08441 54.1666 4.84315 54.1666 5.77925V8.17423C54.1668 8.92899 54.6574 9.59279 55.3703 9.80293C59.6346 11.0558 62.5 14.2074 62.5 17.6435C62.4861 18.7949 62.3269 19.9398 62.0264 21.0499L61.9963 21.0511C60.8732 21.0688 59.752 21.1468 58.6371 21.2852C58.5623 21.2948 58.4873 21.3027 58.4125 21.3131C57.9399 21.3792 57.4643 21.465 56.9869 21.5665C56.8194 21.6017 56.6516 21.6398 56.4842 21.6797C56.0524 21.784 55.6192 21.9018 55.1846 22.0428C54.9842 22.1073 54.7842 22.1848 54.584 22.2577C54.2748 22.3711 53.9653 22.4962 53.6553 22.6325C53.393 22.7471 53.1311 22.8689 52.8692 23.0005C52.5139 23.1789 52.1582 23.3747 51.8026 23.5879C51.6983 23.6504 51.5938 23.6947 51.4895 23.7603C51.9623 22.3129 52.7741 21.0332 54.1668 21.0332C55.0873 21.0332 55.8334 20.2743 55.8334 19.3384C55.8334 18.4023 55.0871 17.6435 54.1668 17.6435C49.2163 17.6435 47.6811 23.2985 47.5163 27.1136C47.3114 27.3311 47.1071 27.5524 46.9014 27.7826C46.7628 27.9375 46.6268 28.0926 46.4909 28.2497C46.2634 28.5133 46.0376 28.7832 45.8132 29.0599C45.6604 29.2472 45.5069 29.4325 45.3589 29.6218C45.0577 30.0053 44.7628 30.3972 44.4739 30.7972C44.4058 30.8918 44.3405 30.9859 44.2737 31.0807C42.7122 33.1602 41.5087 35.4939 40.7146 37.9826H39.6868C39.6446 37.9669 39.5954 37.9504 39.553 37.9347C39.3343 37.8541 39.1054 37.774 38.8814 37.6944C38.5816 37.5875 38.2964 37.4838 37.9796 37.3718C37.3115 37.1374 36.6044 36.889 35.8693 36.6149L35.8337 36.6016V34.7448H35.8333ZM19.5452 4.08441H26.0897C27.6902 4.09236 29.1664 4.96391 29.9666 6.37353C31.6232 9.28353 32.497 12.5862 32.5 15.9487V33.4904C31.6558 33.7686 30.9025 34.0538 30.2013 34.3609C28.0682 34.1921 25.9416 34.7615 24.1668 35.9767V15.9487C24.1668 11.4465 21.6342 7.0687 19.5452 4.08441ZM21.1534 73.7281L21.1432 73.7534C20.7651 74.6728 20.3434 75.1155 19.6241 75.2257C19.6125 75.2273 19.6038 75.2365 19.5924 75.2384C19.4514 75.2591 19.3092 75.2698 19.1668 75.2706C19.0922 75.2706 19.0178 75.2756 18.9438 75.2855C18.4758 74.294 17.5001 70.9192 17.5001 60.0165C17.5001 49.1159 20.8825 43.4969 23.6076 40.7341C23.6266 40.7168 23.652 40.7107 23.6701 40.6922C26.3361 38.0173 28.9199 37.4828 29.9201 37.7675C29.9437 37.7744 29.9685 37.7693 29.9924 37.7748C30.0213 37.7854 30.0648 37.7921 30.0877 37.8038C32.2834 38.8841 34.5498 39.8087 36.8706 40.5712C37.155 40.6707 37.3941 40.7581 37.6533 40.8507C37.9042 40.9399 38.1577 41.0302 38.3962 41.118C39.3734 41.4432 40.313 41.8752 41.1987 42.4065C41.2437 42.4589 41.2726 42.5209 41.3216 42.5707C41.528 42.7654 41.7464 42.9465 41.9753 43.113C42.0573 43.2093 42.1315 43.3122 42.1972 43.4206C42.2108 43.4453 42.2232 43.4739 42.2362 43.5003C42.3089 43.6508 42.3649 43.8089 42.4034 43.9718C42.4138 44.0139 42.4274 44.0489 42.4362 44.0942C42.4792 44.314 42.5005 44.5379 42.4999 44.7621C42.4999 50.628 33.2226 58.3363 28.2381 62.4776C26.6658 63.7835 25.424 64.8148 24.6549 65.5975C24.4486 65.8075 24.2543 66.0294 24.0731 66.2621C24.0565 66.2836 24.0434 66.3066 24.027 66.3281C22.9649 67.8956 22.2207 69.6629 21.8383 71.5264C21.6524 72.2732 21.4237 73.0083 21.1534 73.7281ZM32.5 94.7618C32.4976 97.1009 30.6336 98.9966 28.3334 98.999C26.0332 98.9966 24.1692 97.1009 24.1668 94.7618V87.0294C26.5762 89.7223 29.3887 92.0117 32.5002 93.8126V94.7618H32.5ZM39.9999 98.999C38.0054 98.996 36.2921 97.5574 35.9121 95.5662C38.1021 96.5682 40.3728 97.3768 42.6993 97.9826C41.9493 98.6411 40.9907 99.0019 39.9999 98.999ZM59.2107 96.518C55.8975 95.9005 52.535 95.5964 49.1665 95.6093C48.0319 95.5763 46.9022 95.4438 45.7901 95.2136C45.7751 95.2103 45.7638 95.1983 45.7485 95.1956C41.9788 94.4442 38.3411 93.1225 34.9568 91.2744C34.5041 91.0267 34.0683 90.7641 33.6337 90.5005C33.447 90.3869 33.2605 90.2775 33.0742 90.1591C32.7144 89.9313 32.3652 89.6941 32.0183 89.4552C31.7349 89.2598 31.4531 89.058 31.1728 88.85C30.8662 88.6234 30.5599 88.3967 30.2644 88.161C29.9148 87.8827 29.5728 87.5854 29.2306 87.2874C28.8004 86.9114 28.3834 86.5251 27.9795 86.1285C27.7049 85.8599 27.4312 85.59 27.1639 85.3072C26.8678 84.9924 26.5799 84.6712 26.3004 84.3437C26.1043 84.1162 25.9147 83.8785 25.724 83.6423C25.1889 82.9764 24.685 82.2875 24.2127 81.5757C23.4106 80.3921 22.7012 79.1461 22.0916 77.8493C22.1246 77.8275 22.15 77.7983 22.1824 77.7756C22.3887 77.6342 22.5832 77.4761 22.7643 77.3027C22.8625 77.207 22.9496 77.1029 23.0393 77C23.1668 76.856 23.2867 76.7053 23.3988 76.5484C23.4737 76.4423 23.5485 76.3376 23.6168 76.227C23.7336 76.0381 23.8399 75.8423 23.9399 75.6421C24.0348 75.4526 24.1221 75.2615 24.2043 75.0658C24.268 74.9137 24.3328 74.7624 24.3901 74.6076C24.4684 74.3963 24.5393 74.1873 24.6068 73.9754L24.6459 73.8527C24.7981 73.3649 24.9358 72.881 25.057 72.4276C25.3248 71.2027 25.7506 70.0193 26.3232 68.9078C26.5152 68.5759 26.7465 68.2694 27.0119 67.9949C27.6629 67.3329 28.9064 66.3001 30.3469 65.1034C30.7054 64.8054 31.0761 64.4972 31.4537 64.182C32.0988 66.6977 32.4502 69.282 32.5002 71.8813C32.2847 75.2374 33.9252 78.4361 36.7546 80.1772C36.9831 80.2938 37.2355 80.3543 37.4911 80.3543C38.2564 80.3508 38.9214 79.8187 39.1048 79.0631C39.2882 78.3076 38.9431 77.5218 38.2675 77.1565C36.9665 76.2774 36.1164 74.8565 35.9466 73.2775C37.0076 73.4864 38.0863 73.5867 39.1667 73.5764C40.0872 73.5768 40.8337 72.8184 40.8343 71.8823C40.8349 70.9462 40.089 70.1871 39.1685 70.1865C38.0136 70.2064 36.8628 70.0381 35.7603 69.6882C35.7552 69.6717 35.7437 69.6588 35.7382 69.6425C35.5046 66.9804 35.0123 64.3486 34.2681 61.7854L34.3929 61.6752C34.7044 61.4025 35.016 61.1297 35.3289 60.8491C35.4863 60.7079 35.6427 60.5617 35.8001 60.4187C36.0746 60.1692 36.3488 59.9209 36.6216 59.6659C36.7902 59.5082 36.9554 59.3463 37.123 59.1866C37.3816 58.9403 37.641 58.6956 37.896 58.4448C38.0714 58.2724 38.2413 58.0956 38.4146 57.9212C38.657 57.6771 38.9005 57.4342 39.1374 57.1865C39.3114 57.0046 39.4779 56.8191 39.6484 56.6353L39.6886 56.592C39.9941 57.6874 40.5542 58.6919 41.322 59.5205C42.1036 60.6594 42.5157 62.0182 42.5003 63.407C42.5003 64.3431 43.2466 65.1018 44.1669 65.1018C45.0874 65.1018 45.8335 64.3431 45.8335 63.407C45.8335 63.342 45.8286 63.1769 45.8182 62.9712C46.3429 63.234 46.9157 63.3823 47.5001 63.407C48.4235 63.4083 49.1747 62.6512 49.1813 61.7121C49.1842 61.2642 49.0114 60.8338 48.7012 60.516C48.3911 60.1982 47.969 60.0193 47.5286 60.0189C46.0745 59.3169 44.7681 58.3351 43.6815 57.1275L43.6786 57.124C42.8962 55.9837 42.4843 54.6229 42.5003 53.2326L42.4966 53.2143C42.6394 53.0174 42.7683 52.8184 42.904 52.6204C43.0724 52.3749 43.244 52.13 43.4009 51.8829C43.5351 51.6714 43.654 51.4587 43.779 51.2461C43.9235 51.0008 44.0712 50.7559 44.2026 50.5094C44.3181 50.2928 44.4167 50.0753 44.5214 49.858C44.639 49.6139 44.7599 49.3706 44.863 49.1259C44.9559 48.9056 45.0304 48.6849 45.1108 48.4642C45.1997 48.2211 45.2917 47.978 45.3645 47.7343C45.4311 47.5124 45.4778 47.2906 45.5307 47.0685C45.5884 46.8256 45.6491 46.5827 45.6895 46.3398C45.7266 46.1167 45.7429 45.8943 45.7645 45.6716C45.7823 45.4897 45.8188 45.3074 45.8261 45.1256C45.9563 45.1733 46.0952 45.2096 46.2274 45.2555C46.422 45.3222 46.6157 45.3828 46.8128 45.445C47.1774 45.5604 47.5382 45.6698 47.9087 45.7682C48.0592 45.8079 48.2063 45.8403 48.3565 45.877C48.7526 45.9739 49.1436 46.0659 49.5352 46.1398C49.7098 46.1729 49.8739 46.193 50.0454 46.2212C50.3891 46.2772 50.7325 46.336 51.0633 46.371C51.5403 46.4256 52.0198 46.4548 52.4996 46.4582C53.3535 46.4582 54.1766 46.4349 54.9838 46.4002C55.226 46.3896 55.461 46.3745 55.6988 46.361C56.2897 46.3275 56.866 46.2842 57.4281 46.2313C57.5639 46.2184 57.7117 46.2141 57.8457 46.2L57.8475 46.2093C57.8752 46.5114 57.9336 46.8097 58.0219 47.0995C58.0352 47.1438 58.0492 47.1879 58.0639 47.232C58.0973 47.3331 58.1192 47.4358 58.16 47.5357C58.2145 47.6692 58.2973 47.7897 58.3635 47.918C58.3938 47.9768 58.4084 48.0386 58.4414 48.0968C58.4623 48.1335 58.4926 48.1657 58.5145 48.2021C58.617 48.3693 58.7291 48.5306 58.85 48.6847C58.9262 48.7836 59.0033 48.8811 59.0871 48.9757C59.2174 49.1221 59.3549 49.2617 59.499 49.394C59.5998 49.4871 59.7045 49.5765 59.8129 49.6643C59.9639 49.7863 60.1189 49.9037 60.2844 50.0149C60.4115 50.1007 60.5445 50.1801 60.6797 50.2592C60.8475 50.3573 61.0158 50.4536 61.1953 50.5412C61.351 50.6175 61.5144 50.6844 61.6783 50.7526C61.8559 50.8263 62.031 50.9009 62.2178 50.9647C62.4078 51.0298 62.6072 51.0821 62.8058 51.1365C62.9832 51.185 63.1562 51.2386 63.34 51.2783C63.4334 51.2986 63.5291 51.3143 63.624 51.3323C62.1611 55.7938 61.2242 60.4161 60.8334 65.1022C60.8348 65.4965 60.8607 65.8901 60.9111 66.281C60.6273 67.1329 59.259 70.1869 57.5 70.1869C56.5795 70.1869 55.8334 70.9456 55.8334 71.8817C55.8334 72.8178 56.5795 73.5766 57.5 73.5766C59.5018 73.4747 61.3281 72.3841 62.391 70.656C62.7703 71.3862 63.1767 72.0859 63.5711 72.7539C64.8341 74.4801 65.6158 76.521 65.8334 78.6613C65.6847 82.1092 64.5123 85.4301 62.4707 88.1868C60.7088 90.6382 59.5871 93.5049 59.2107 96.518ZM72.4997 98.999C69.8056 98.8947 67.1337 98.4595 64.5424 97.703C63.8832 97.5413 63.2012 97.3768 62.5051 97.2136C62.7494 94.578 63.7201 92.0661 65.3056 89.9666C66.9822 87.5089 68.1875 84.7512 68.8582 81.8386C70.2687 82.9758 71.4908 84.3353 72.4777 85.8661C72.4474 87.1123 72.0439 88.3193 71.3212 89.3263C70.8939 89.7531 70.7245 90.3804 70.8779 90.9691C71.0312 91.558 71.4833 92.0178 72.0624 92.1737C72.6415 92.3297 73.2581 92.1574 73.6778 91.7229C74.2901 91.0702 74.7646 90.297 75.0716 89.4506C75.7392 90.0759 76.5944 90.4543 77.4993 90.5244C78.3893 90.5242 79.1222 89.8131 79.1641 88.909C79.2061 88.0049 78.5423 87.2267 77.6563 87.1413C77.5188 87.0932 76.6595 86.721 75.6569 84.6817C73.9745 81.9302 71.7452 79.5664 69.1121 77.7423C68.7249 75.3215 67.8078 73.02 66.4285 71.0082C65.1652 69.282 64.3838 67.2411 64.1662 65.1008C64.1855 64.0777 64.2818 63.0574 64.4545 62.0492C66.0066 65.1753 68.7792 67.4942 72.095 68.4392C74.0644 68.9408 75.5569 71.5709 75.9638 72.5392C76.3216 73.4016 77.2991 73.806 78.1472 73.4421C78.9952 73.0782 79.3929 72.0841 79.035 71.2217C78.8218 70.7069 76.8321 66.1503 72.9038 65.1522C67.3611 63.742 65.8148 56.3648 65.7994 56.2903C65.7888 56.2371 65.755 56.197 65.7398 56.1459C66.2363 54.2457 66.7353 52.5642 67.0586 51.5135C67.983 51.4738 68.8996 51.3218 69.7884 51.0606C69.8542 51.041 69.9201 51.0229 69.9855 51.0016C70.1199 50.9567 70.2521 50.9029 70.3851 50.8501C71.0316 50.6117 71.6337 50.2642 72.1663 49.8218C78.8884 60.8866 82.4991 74.4112 82.4991 82.0498C82.4997 96.7976 76.2343 98.999 72.4997 98.999Z" fill="#151F38"/>
                        </g>
                        <defs>
                        <clipPath id="clip0">
                            <rect width="100" height="101.695" fill="white" transform="translate(0 0.694336)"/>
                        </clipPath>
                        </defs>
                    </svg>