<svg width="100" height="103" viewBox="0 0 100 103" fill="none" xmlns="http://www.w3.org/2000/svg">
                        <g clip-path="url(#clip0)">
                        <path d="M97.4295 17.3529L83.6188 3.30804C80.1918 -0.176799 74.616 -0.176998 71.1891 3.30804C67.7621 6.79308 67.7623 12.4634 71.1891 15.9484L71.8797 16.6507L64.9744 23.673L61.5217 20.1618C58.0947 16.6769 52.5189 16.6767 49.092 20.1618C46.3914 22.9083 45.8207 27.0113 47.3768 30.3329L17.3275 60.8916C14.627 63.638 14.0562 67.7411 15.6123 71.0627L11.8033 74.9362C9.13809 77.6466 9.13809 82.057 11.8033 84.7675L12.4939 85.4698L0.857617 97.3033C-0.286523 98.4669 -0.286523 100.353 0.857617 101.517C2.00176 102.68 3.85664 102.68 5.00078 101.517L16.6369 89.6834L17.3273 90.3857C19.9926 93.0961 24.3295 93.0961 26.9947 90.3857L30.8037 86.5122C34.0701 88.0946 38.1047 87.5142 40.8055 84.7679L70.8547 54.2093C74.1211 55.7918 78.1557 55.2114 80.8562 52.465C84.2832 48.98 84.2832 43.3097 80.8562 39.8247L77.4035 36.3134L84.3088 29.2911L84.9994 29.9934C88.4264 33.4785 94.0021 33.4785 97.4291 29.9934C100.856 26.5082 100.856 20.8379 97.4295 17.3529ZM22.8518 86.1721C22.4711 86.5592 21.8514 86.5592 21.4707 86.1721L15.9465 80.5543C15.5658 80.1671 15.5658 79.5369 15.9465 79.1498L19.3992 75.6385L26.3045 82.6609L22.8518 86.1721ZM36.6625 80.5543C35.5201 81.716 33.6617 81.716 32.5193 80.5543L21.4707 69.3186C20.3283 68.1568 20.3283 66.2669 21.4707 65.1052L24.04 62.4923L27.4928 66.0033C28.6369 67.1669 30.4918 67.1669 31.6359 66.0033C32.7801 64.8398 32.7801 62.9535 31.6359 61.79L28.1832 58.2787L32.3264 54.0653L35.7791 57.5766C36.9232 58.7401 38.7781 58.7401 39.9223 57.5766C41.0664 56.413 41.0664 54.5267 39.9223 53.3632L36.4695 49.8519L40.6127 45.6385L55.8045 61.0878L36.6625 80.5543ZM59.9477 56.8742L44.7559 41.425L51.1635 34.9087L66.3553 50.358L59.9477 56.8742ZM76.7135 48.2512C75.5711 49.413 73.7127 49.413 72.5703 48.2512L53.2353 28.5886C52.0932 27.4268 52.093 25.5367 53.2353 24.3752C54.3777 23.2134 56.2363 23.2134 57.3785 24.3752L76.7135 44.0378C77.8559 45.1996 77.8559 47.0897 76.7135 48.2512ZM73.2607 32.0998L69.1176 27.8864L76.0229 20.8641L80.166 25.0775L73.2607 32.0998ZM93.2861 25.7796C92.1438 26.9414 90.2853 26.9414 89.143 25.7796L75.3322 11.7348C74.1898 10.5731 74.1898 8.68317 75.3322 7.52143C76.4746 6.35968 78.3332 6.35988 79.4754 7.52143L93.2861 21.5662C94.4285 22.728 94.4285 24.6181 93.2861 25.7796Z" fill="#151F38"/>
                        </g>
                        <defs>
                        <clipPath id="clip0">
                        <rect width="100" height="101.695" fill="white" transform="translate(0 0.694336)"/>
                        </clipPath>
                        </defs>
                        </svg>